<svg xmlns="http://www.w3.org/2000/svg" xmlns:xlink="http://www.w3.org/1999/xlink"><symbol id="a" fill="none" viewBox="0 0 12 12"><path stroke="currentColor" d="m11.46 3.82-5.46 4.9-5.45-4.9"/></symbol><use xlink:href="#a" width="12" height="12"/><view viewBox="0 0 12 12"/><symbol id="b" fill="none" viewBox="0 0 22 22"><path stroke="currentColor" d="m1 21 20-20m0 0h-19.87m19.87 0v19.87"/></symbol><use xlink:href="#b" width="22" height="22" y="12"/><view viewBox="0 12 22 22"/><symbol id="c" fill="none" viewBox="0 0 22 20"><path stroke="#316DC2" stroke-linecap="round" stroke-linejoin="round" d="m1 8.5 7.37 10.5 12.63-18"/></symbol><use xlink:href="#c" width="22" height="20" y="34"/><view viewBox="0 34 22 20"/><symbol id="d" fill="none" viewBox="0 0 20 20"><path stroke="currentColor" stroke-linecap="round" stroke-linejoin="round" d="m1 19 9-9m0 0 9-9m-9 9 9 9m-9-9-9-9"/></symbol><use xlink:href="#d" width="20" height="20" y="54"/><view viewBox="0 54 20 20"/><symbol id="e" fill="none" viewBox="0 0 22 12"><path stroke="currentColor" stroke-linecap="round" d="M1 1h20m-20 5h20m-20 5h20"/></symbol><use xlink:href="#e" width="22" height="12" y="74"/><view viewBox="0 74 22 12"/></svg>